<svg width="358" height="387" viewBox="0 0 358 387" fill="none" xmlns="http://www.w3.org/2000/svg">
<path d="M176.747 387C276.85 387 358 297.332 358 186.721C358 76.1102 286.864 0 186.761 0C86.6575 0 0 76.1102 0 186.721C0 297.332 76.6435 387 176.747 387Z" fill="url(#paint0_linear_737_7997)" fill-opacity="0.3"/>
<path d="M257.579 80.9053C257.395 81.8694 257.391 81.8875 257.391 81.8877C257.39 81.8876 257.389 81.8869 257.388 81.8867L257.334 81.877C257.295 81.8696 257.237 81.8581 257.161 81.8438C257.008 81.815 256.782 81.7725 256.485 81.7178C255.893 81.6082 255.022 81.4496 253.914 81.2529C251.698 80.8595 248.53 80.3145 244.729 79.709C237.124 78.4976 226.992 77.045 216.866 76.0771C206.725 75.1079 196.648 74.6311 189.131 75.3496C185.361 75.71 182.327 76.3642 180.265 77.3496C178.213 78.3302 177.343 79.5141 177.343 80.9053C177.343 88.8644 175.389 92.5636 174.477 95.4805C174.036 96.8894 173.843 98.0852 174.149 99.583C174.465 101.124 175.327 103.067 177.181 105.906C181.137 111.966 181.113 118.65 180.146 123.733C179.662 126.282 178.936 128.456 178.331 129.994C178.184 130.368 178.045 130.704 177.917 131H337.326C337.174 130.605 336.998 130.137 336.812 129.604C336.213 127.88 335.492 125.479 335.01 122.783C334.057 117.455 333.989 110.677 338.047 105.812C339.833 103.672 340.123 102.32 339.96 101.262C339.872 100.695 339.642 100.126 339.292 99.4805C338.929 98.8124 338.503 98.1718 338.008 97.3535C337.045 95.7622 336.02 93.8059 335.758 91.0791C335.501 88.4037 335.986 85.0846 337.809 80.7217C337.75 78.7253 336.733 77.1958 334.8 76.0039C332.759 74.7454 329.752 73.9072 325.999 73.4443C318.51 72.5208 308.456 73.1337 298.319 74.3838C288.201 75.6316 278.075 77.5049 270.474 79.0674C266.674 79.8483 263.508 80.5512 261.293 81.0586C260.186 81.3122 259.316 81.517 258.724 81.6582C258.427 81.7288 258.2 81.7833 258.048 81.8203C257.972 81.8387 257.914 81.8529 257.876 81.8623C257.857 81.867 257.842 81.8707 257.832 81.873C257.827 81.8742 257.824 81.8744 257.821 81.875L257.819 81.876L257.579 80.9053ZM257.579 80.9053L257.818 81.876L257.606 81.9287L257.392 81.8877L257.579 80.9053Z" stroke="#A16438" stroke-width="2"/>
<path d="M283.879 133L273.007 227.576L272.982 227.784L273.044 227.984L283.645 262.396H230.409L242.443 228.021L242.522 227.797L242.491 227.561L230.139 133H283.879Z" stroke="#CCA183" stroke-width="2"/>
<path d="M224.728 119H141.753C140.469 118.999 139.199 119.239 138.024 119.704C136.849 120.17 135.795 120.85 134.929 121.702C133.955 122.521 133.189 123.52 132.685 124.63C132.18 125.741 131.95 126.936 132.009 128.135L133.756 162.442V254.444C133.756 256.448 134.641 258.37 136.218 259.787C137.795 261.204 139.934 262 142.164 262H223.348C225.674 261.91 227.877 261.039 229.523 259.56C231.169 258.081 232.138 256.1 232.239 254.011V162.031L233.99 127.723C234.049 126.597 233.853 125.472 233.414 124.416C232.975 123.36 232.302 122.395 231.436 121.58C230.57 120.765 229.529 120.115 228.376 119.672C227.223 119.229 225.982 119 224.728 119Z" fill="#F5F8F2"/>
<mask id="mask0_737_7997" style="mask-type:luminance" maskUnits="userSpaceOnUse" x="132" y="119" width="102" height="143">
<path d="M224.728 119H141.753C140.469 118.999 139.199 119.239 138.024 119.704C136.849 120.17 135.795 120.85 134.929 121.702C133.955 122.521 133.189 123.52 132.685 124.63C132.18 125.741 131.95 126.936 132.009 128.135L133.756 162.442V254.444C133.756 256.448 134.641 258.37 136.218 259.787C137.795 261.204 139.934 262 142.164 262H223.348C225.674 261.91 227.877 261.039 229.523 259.56C231.169 258.081 232.138 256.1 232.239 254.011V162.031L233.99 127.723C234.049 126.597 233.853 125.472 233.414 124.416C232.975 123.36 232.302 122.395 231.436 121.58C230.57 120.765 229.529 120.115 228.376 119.672C227.223 119.229 225.982 119 224.728 119Z" fill="white"/>
</mask>
<g mask="url(#mask0_737_7997)">
<path opacity="0.2" d="M229.304 120.085C230.58 121.625 231.224 123.514 231.127 125.433L229.375 159.741V251.725C229.275 253.815 228.306 255.795 226.66 257.274C225.014 258.753 222.811 259.624 220.485 259.714H139.301C137.906 259.714 136.533 259.401 135.306 258.805C136.081 259.792 137.109 260.597 138.302 261.152C139.495 261.707 140.82 261.997 142.164 261.996H223.348C225.674 261.905 227.877 261.035 229.523 259.555C231.169 258.076 232.138 256.096 232.239 254.006V162.031L233.99 127.723C234.069 126.185 233.673 124.658 232.846 123.31C232.019 121.962 230.793 120.845 229.304 120.085Z" fill="#1C0E04"/>
</g>
<path d="M224.728 119H141.753C140.469 118.999 139.199 119.239 138.024 119.704C136.849 120.17 135.795 120.85 134.929 121.702C133.955 122.521 133.189 123.52 132.685 124.63C132.18 125.741 131.95 126.936 132.009 128.135L133.756 162.442V254.444C133.756 256.448 134.641 258.37 136.218 259.787C137.795 261.204 139.934 262 142.164 262H223.348C225.674 261.91 227.877 261.039 229.523 259.56C231.169 258.081 232.138 256.1 232.239 254.011V162.031L233.99 127.723C234.049 126.597 233.853 125.472 233.414 124.416C232.975 123.36 232.302 122.395 231.436 121.58C230.57 120.765 229.529 120.115 228.376 119.672C227.223 119.229 225.982 119 224.728 119Z" stroke="#302E2E" stroke-miterlimit="10"/>
<path d="M227.734 160.984L229.342 128.966C229.377 128.277 229.256 127.588 228.986 126.942C228.716 126.295 228.304 125.705 227.773 125.206C227.242 124.707 226.604 124.309 225.898 124.038C225.192 123.767 224.432 123.627 223.663 123.627H142.822C142.054 123.627 141.294 123.767 140.588 124.038C139.881 124.309 139.243 124.707 138.713 125.206C138.182 125.705 137.769 126.295 137.5 126.942C137.23 127.588 137.109 128.277 137.144 128.966L138.747 160.984H227.734Z" fill="#302E2E" stroke="#302E2E" stroke-miterlimit="10"/>
<path d="M224.188 131.938H141.916V156.945H224.188V131.938Z" fill="white"/>
<path d="M220.127 135.588H145.976V153.295H220.127V135.588Z" fill="#302E2E"/>
<path d="M181.208 171.14H144.44C143.13 171.14 142.068 172.094 142.068 173.271V179.957C142.068 181.134 143.13 182.088 144.44 182.088H181.208C182.517 182.088 183.579 181.134 183.579 179.957V173.271C183.579 172.094 182.517 171.14 181.208 171.14Z" fill="white" stroke="#302E2E" stroke-miterlimit="10"/>
<path d="M150.791 171.277V182.088" stroke="#302E2E" stroke-miterlimit="10"/>
<path d="M159.166 171.277V182.088" stroke="#302E2E" stroke-miterlimit="10"/>
<path d="M167.536 171.277V182.088" stroke="#302E2E" stroke-miterlimit="10"/>
<path d="M175.906 171.277V182.088" stroke="#302E2E" stroke-miterlimit="10"/>
<path d="M206.699 177.156H196.339C195.122 177.156 194.135 178.043 194.135 179.138V183.769C194.135 184.863 195.122 185.75 196.339 185.75H206.699C207.917 185.75 208.904 184.863 208.904 183.769V179.138C208.904 178.043 207.917 177.156 206.699 177.156Z" fill="#EDD0BB" stroke="#302E2E" stroke-miterlimit="10"/>
<path d="M154.881 189.018H144.521C143.303 189.018 142.316 189.905 142.316 191V197.154C142.316 198.248 143.303 199.135 144.521 199.135H154.881C156.098 199.135 157.086 198.248 157.086 197.154V191C157.086 189.905 156.098 189.018 154.881 189.018Z" fill="#EDD0BB" stroke="#302E2E" stroke-miterlimit="10"/>
<path d="M172.193 189.018H161.834C160.616 189.018 159.629 189.905 159.629 191V197.154C159.629 198.248 160.616 199.135 161.834 199.135H172.193C173.411 199.135 174.398 198.248 174.398 197.154V191C174.398 189.905 173.411 189.018 172.193 189.018Z" fill="#EDD0BB" stroke="#302E2E" stroke-miterlimit="10"/>
<path d="M179.146 189.018H189.501C190.087 189.018 190.649 189.228 191.063 189.6C191.478 189.972 191.711 190.477 191.711 191.004V197.154C191.711 197.679 191.479 198.184 191.065 198.556C190.652 198.928 190.091 199.138 189.506 199.139H179.151C178.566 199.139 178.005 198.93 177.592 198.559C177.179 198.187 176.946 197.683 176.946 197.158V191C176.946 190.475 177.178 189.972 177.59 189.6C178.003 189.229 178.562 189.019 179.146 189.018Z" fill="#EDD0BB" stroke="#302E2E" stroke-miterlimit="10"/>
<path d="M206.818 189.018H196.459C195.241 189.018 194.254 189.905 194.254 191V197.154C194.254 198.248 195.241 199.135 196.459 199.135H206.818C208.036 199.135 209.023 198.248 209.023 197.154V191C209.023 189.905 208.036 189.018 206.818 189.018Z" fill="#EDD0BB" stroke="#302E2E" stroke-miterlimit="10"/>
<path d="M224.131 189.018H213.771C212.554 189.018 211.567 189.905 211.567 191V197.154C211.567 198.248 212.554 199.135 213.771 199.135H224.131C225.349 199.135 226.336 198.248 226.336 197.154V191C226.336 189.905 225.349 189.018 224.131 189.018Z" fill="#EDD0BB" stroke="#302E2E" stroke-miterlimit="10"/>
<path d="M154.881 202.617H144.521C143.303 202.617 142.316 203.504 142.316 204.598V210.752C142.316 211.847 143.303 212.734 144.521 212.734H154.881C156.098 212.734 157.086 211.847 157.086 210.752V204.598C157.086 203.504 156.098 202.617 154.881 202.617Z" fill="#EDD0BB" stroke="#302E2E" stroke-miterlimit="10"/>
<path d="M172.193 202.617H161.834C160.616 202.617 159.629 203.504 159.629 204.598V210.752C159.629 211.847 160.616 212.734 161.834 212.734H172.193C173.411 212.734 174.398 211.847 174.398 210.752V204.598C174.398 203.504 173.411 202.617 172.193 202.617Z" fill="#B7835E" stroke="#302E2E" stroke-miterlimit="10"/>
<path d="M179.146 202.626H189.501C190.087 202.626 190.649 202.835 191.063 203.208C191.478 203.58 191.711 204.085 191.711 204.612V210.761C191.711 211.287 191.479 211.792 191.065 212.164C190.652 212.536 190.091 212.746 189.506 212.747H179.151C178.566 212.747 178.005 212.538 177.592 212.167C177.179 211.795 176.946 211.291 176.946 210.766V204.599C176.949 204.075 177.182 203.574 177.594 203.205C178.006 202.835 178.564 202.627 179.146 202.626Z" fill="#B7835E" stroke="#302E2E" stroke-miterlimit="10"/>
<path d="M206.818 202.617H196.459C195.241 202.617 194.254 203.504 194.254 204.598V210.752C194.254 211.847 195.241 212.734 196.459 212.734H206.818C208.036 212.734 209.023 211.847 209.023 210.752V204.598C209.023 203.504 208.036 202.617 206.818 202.617Z" fill="#B7835E" stroke="#302E2E" stroke-miterlimit="10"/>
<path d="M224.131 202.617H213.771C212.554 202.617 211.567 203.504 211.567 204.598V210.752C211.567 211.847 212.554 212.734 213.771 212.734H224.131C225.349 212.734 226.336 211.847 226.336 210.752V204.598C226.336 203.504 225.349 202.617 224.131 202.617Z" fill="#EDD0BB" stroke="#302E2E" stroke-miterlimit="10"/>
<path d="M154.881 216.216H144.521C143.303 216.216 142.316 217.103 142.316 218.197V224.351C142.316 225.446 143.303 226.333 144.521 226.333H154.881C156.098 226.333 157.086 225.446 157.086 224.351V218.197C157.086 217.103 156.098 216.216 154.881 216.216Z" fill="#EDD0BB" stroke="#302E2E" stroke-miterlimit="10"/>
<path d="M172.193 216.216H161.834C160.616 216.216 159.629 217.103 159.629 218.197V224.351C159.629 225.446 160.616 226.333 161.834 226.333H172.193C173.411 226.333 174.398 225.446 174.398 224.351V218.197C174.398 217.103 173.411 216.216 172.193 216.216Z" fill="#B7835E" stroke="#302E2E" stroke-miterlimit="10"/>
<path d="M179.146 216.216H189.501C190.087 216.216 190.649 216.425 191.064 216.798C191.478 217.17 191.711 217.675 191.711 218.202V224.351C191.711 224.877 191.479 225.382 191.065 225.754C190.652 226.126 190.091 226.336 189.506 226.337H179.151C178.566 226.337 178.005 226.128 177.592 225.757C177.179 225.385 176.946 224.881 176.946 224.356V218.202C176.946 217.941 177.002 217.684 177.112 217.443C177.223 217.203 177.384 216.984 177.589 216.799C177.793 216.615 178.036 216.469 178.303 216.369C178.57 216.268 178.857 216.217 179.146 216.216Z" fill="#B7835E" stroke="#302E2E" stroke-miterlimit="10"/>
<path d="M206.818 216.216H196.459C195.241 216.216 194.254 217.103 194.254 218.197V224.351C194.254 225.446 195.241 226.333 196.459 226.333H206.818C208.036 226.333 209.023 225.446 209.023 224.351V218.197C209.023 217.103 208.036 216.216 206.818 216.216Z" fill="#B7835E" stroke="#302E2E" stroke-miterlimit="10"/>
<path d="M224.131 216.216H213.771C212.554 216.216 211.567 217.103 211.567 218.197V224.351C211.567 225.446 212.554 226.333 213.771 226.333H224.131C225.349 226.333 226.336 225.446 226.336 224.351V218.197C226.336 217.103 225.349 216.216 224.131 216.216Z" fill="#EDD0BB" stroke="#302E2E" stroke-miterlimit="10"/>
<path d="M154.881 229.815H144.521C143.303 229.815 142.316 230.702 142.316 231.796V237.95C142.316 239.044 143.303 239.931 144.521 239.931H154.881C156.098 239.931 157.086 239.044 157.086 237.95V231.796C157.086 230.702 156.098 229.815 154.881 229.815Z" fill="#7F9767" stroke="#302E2E" stroke-miterlimit="10"/>
<path d="M172.193 229.815H161.834C160.616 229.815 159.629 230.702 159.629 231.796V237.95C159.629 239.044 160.616 239.931 161.834 239.931H172.193C173.411 239.931 174.398 239.044 174.398 237.95V231.796C174.398 230.702 173.411 229.815 172.193 229.815Z" fill="#B7835E" stroke="#302E2E" stroke-miterlimit="10"/>
<path d="M179.146 229.815H189.501C190.087 229.815 190.649 230.024 191.063 230.396C191.478 230.769 191.711 231.274 191.711 231.8V237.95C191.711 238.476 191.479 238.98 191.065 239.352C190.652 239.725 190.091 239.934 189.506 239.936H179.151C178.566 239.936 178.005 239.727 177.592 239.355C177.179 238.984 176.946 238.48 176.946 237.954V231.787C176.949 231.264 177.182 230.763 177.594 230.393C178.006 230.024 178.564 229.816 179.146 229.815Z" fill="#B7835E" stroke="#302E2E" stroke-miterlimit="10"/>
<path d="M206.818 229.815H196.459C195.241 229.815 194.254 230.702 194.254 231.796V237.95C194.254 239.044 195.241 239.931 196.459 239.931H206.818C208.036 239.931 209.023 239.044 209.023 237.95V231.796C209.023 230.702 208.036 229.815 206.818 229.815Z" fill="#B7835E" stroke="#302E2E" stroke-miterlimit="10"/>
<path d="M154.881 243.418H144.521C143.303 243.418 142.316 244.305 142.316 245.399V251.553C142.316 252.647 143.303 253.535 144.521 253.535H154.881C156.098 253.535 157.086 252.647 157.086 251.553V245.399C157.086 244.305 156.098 243.418 154.881 243.418Z" fill="#7F9767" stroke="#302E2E" stroke-miterlimit="10"/>
<path d="M172.193 243.418H161.834C160.616 243.418 159.629 244.305 159.629 245.399V251.553C159.629 252.647 160.616 253.535 161.834 253.535H172.193C173.411 253.535 174.398 252.647 174.398 251.553V245.399C174.398 244.305 173.411 243.418 172.193 243.418Z" fill="#B7835E" stroke="#302E2E" stroke-miterlimit="10"/>
<path d="M179.146 243.418H189.501C190.087 243.418 190.649 243.627 191.063 244C191.478 244.372 191.711 244.877 191.711 245.404V251.553C191.711 252.079 191.479 252.584 191.065 252.956C190.652 253.328 190.091 253.538 189.506 253.539H179.151C178.566 253.539 178.005 253.33 177.592 252.959C177.179 252.587 176.946 252.083 176.946 251.558V245.399C176.946 244.875 177.178 244.371 177.59 244C178.003 243.628 178.562 243.419 179.146 243.418Z" fill="#B7835E" stroke="#302E2E" stroke-miterlimit="10"/>
<path d="M206.818 243.418H196.459C195.241 243.418 194.254 244.305 194.254 245.399V251.553C194.254 252.647 195.241 253.535 196.459 253.535H206.818C208.036 253.535 209.023 252.647 209.023 251.553V245.399C209.023 244.305 208.036 243.418 206.818 243.418Z" fill="#EDD0BB" stroke="#302E2E" stroke-miterlimit="10"/>
<path d="M224.093 229.815H213.805C213.211 229.816 212.641 230.029 212.222 230.407C211.802 230.784 211.567 231.296 211.567 231.83V251.515C211.567 252.048 211.802 252.56 212.222 252.937C212.642 253.314 213.211 253.526 213.805 253.526H224.093C224.387 253.526 224.679 253.475 224.951 253.374C225.223 253.273 225.47 253.125 225.678 252.938C225.887 252.751 226.052 252.529 226.165 252.285C226.278 252.041 226.336 251.779 226.336 251.515V231.83C226.336 231.296 226.099 230.783 225.679 230.405C225.258 230.027 224.688 229.815 224.093 229.815Z" fill="#EDD0BB" stroke="#302E2E" stroke-miterlimit="10"/>
<path d="M224.131 177.156H213.771C212.554 177.156 211.567 178.043 211.567 179.138V183.769C211.567 184.863 212.554 185.75 213.771 185.75H224.131C225.349 185.75 226.336 184.863 226.336 183.769V179.138C226.336 178.043 225.349 177.156 224.131 177.156Z" fill="#7F9767" stroke="#302E2E" stroke-miterlimit="10"/>
<path d="M214.415 183.58C213.978 183.06 213.742 182.425 213.742 181.773C213.742 181.12 213.978 180.486 214.415 179.965C214.915 179.536 215.58 179.296 216.272 179.296C216.963 179.296 217.628 179.536 218.128 179.965C218.565 180.486 218.801 181.12 218.801 181.773C218.801 182.425 218.565 183.06 218.128 183.58C217.628 184.01 216.963 184.249 216.272 184.249C215.58 184.249 214.915 184.01 214.415 183.58ZM217.546 183.186C217.845 182.763 218.004 182.272 218.004 181.771C218.004 181.269 217.845 180.778 217.546 180.355C217.394 180.185 217.2 180.049 216.978 179.959C216.756 179.87 216.514 179.829 216.272 179.841C216.028 179.83 215.786 179.87 215.563 179.96C215.341 180.049 215.146 180.185 214.993 180.355C214.697 180.779 214.54 181.27 214.54 181.771C214.54 182.271 214.697 182.762 214.993 183.186C215.145 183.358 215.34 183.494 215.562 183.585C215.785 183.675 216.028 183.716 216.272 183.705C216.515 183.716 216.757 183.675 216.979 183.585C217.201 183.495 217.395 183.358 217.546 183.186Z" fill="#F5F8F2"/>
<path d="M220.022 184.095C219.988 184.068 219.96 184.034 219.942 183.997C219.924 183.959 219.916 183.918 219.917 183.876V179.798C219.913 179.74 219.922 179.683 219.943 179.628C219.965 179.574 219.998 179.523 220.042 179.481C220.08 179.443 220.128 179.413 220.18 179.393C220.233 179.373 220.29 179.364 220.347 179.365C220.443 179.367 220.536 179.39 220.619 179.434C220.715 179.481 220.796 179.549 220.858 179.631L223.587 183.199V179.665C223.585 179.624 223.592 179.583 223.61 179.546C223.627 179.508 223.653 179.474 223.687 179.446C223.755 179.391 223.844 179.362 223.935 179.365C224.024 179.363 224.109 179.392 224.174 179.446C224.21 179.473 224.238 179.506 224.256 179.544C224.274 179.582 224.282 179.624 224.279 179.665V183.756C224.283 183.814 224.273 183.872 224.251 183.927C224.229 183.982 224.194 184.031 224.15 184.074C224.062 184.15 223.944 184.193 223.821 184.194C223.732 184.193 223.646 184.172 223.568 184.134C223.484 184.096 223.411 184.04 223.358 183.971L220.619 180.403V183.894C220.622 183.935 220.614 183.976 220.596 184.014C220.577 184.052 220.549 184.086 220.514 184.112C220.444 184.165 220.357 184.194 220.266 184.194C220.174 184.19 220.087 184.155 220.022 184.095Z" fill="#F5F8F2"/>
<path d="M146.912 196.836C146.826 196.78 146.758 196.705 146.716 196.617L144.974 193.097V196.759C144.976 196.795 144.967 196.83 144.949 196.862C144.931 196.893 144.903 196.92 144.869 196.939C144.798 196.979 144.715 197.001 144.631 197.001C144.546 197.001 144.464 196.979 144.392 196.939C144.358 196.92 144.331 196.893 144.313 196.862C144.294 196.83 144.285 196.795 144.287 196.759V192.762C144.288 192.7 144.303 192.638 144.333 192.582C144.363 192.526 144.406 192.476 144.459 192.436C144.569 192.351 144.71 192.305 144.855 192.307C144.981 192.306 145.105 192.341 145.208 192.406C145.328 192.48 145.421 192.585 145.475 192.706L147.179 196.099L148.878 192.706C148.929 192.584 149.02 192.479 149.14 192.406C149.253 192.337 149.387 192.303 149.523 192.308C149.659 192.314 149.789 192.359 149.894 192.436C149.947 192.476 149.99 192.526 150.02 192.582C150.05 192.638 150.065 192.7 150.066 192.762V196.746C150.068 196.782 150.059 196.817 150.041 196.849C150.022 196.881 149.995 196.907 149.961 196.926C149.89 196.97 149.804 196.993 149.718 196.991C149.631 196.992 149.546 196.97 149.474 196.926C149.442 196.906 149.415 196.879 149.397 196.848C149.378 196.817 149.369 196.782 149.369 196.746V193.084L147.618 196.622C147.576 196.709 147.508 196.785 147.422 196.84C147.349 196.889 147.261 196.916 147.169 196.918C147.076 196.915 146.986 196.887 146.912 196.836Z" fill="#F5F8F2"/>
<path d="M152.342 196.785C151.969 196.57 151.673 196.263 151.488 195.901C151.292 195.509 151.194 195.083 151.202 194.653C151.201 194.322 151.261 193.994 151.378 193.68C151.482 193.393 151.643 193.125 151.855 192.891C152.076 192.661 152.349 192.478 152.657 192.355C152.994 192.224 153.359 192.158 153.726 192.162C154.2 192.159 154.667 192.266 155.081 192.475C155.131 192.494 155.173 192.527 155.202 192.568C155.231 192.61 155.245 192.658 155.244 192.706C155.245 192.741 155.238 192.776 155.224 192.808C155.21 192.841 155.189 192.87 155.162 192.895C155.138 192.921 155.107 192.942 155.072 192.956C155.038 192.97 155 192.977 154.962 192.977C154.92 192.974 154.88 192.963 154.843 192.947L154.747 192.904L154.623 192.852L154.475 192.801L154.28 192.749L154.046 192.719C153.949 192.715 153.852 192.715 153.755 192.719C153.53 192.717 153.308 192.751 153.096 192.818C152.919 192.882 152.757 192.977 152.619 193.097C152.479 193.222 152.363 193.367 152.275 193.526C152.184 193.694 152.116 193.873 152.075 194.057C151.986 194.455 151.986 194.865 152.075 195.262C152.116 195.445 152.183 195.623 152.275 195.79C152.362 195.949 152.478 196.095 152.619 196.219C152.765 196.34 152.937 196.433 153.125 196.493C153.34 196.564 153.568 196.599 153.798 196.596C153.995 196.598 154.192 196.57 154.38 196.515C154.568 196.454 154.75 196.377 154.924 196.287C154.967 196.264 155.017 196.252 155.067 196.253C155.104 196.253 155.14 196.259 155.174 196.273C155.208 196.286 155.238 196.306 155.263 196.33C155.29 196.353 155.311 196.381 155.326 196.412C155.341 196.443 155.348 196.477 155.348 196.51C155.345 196.565 155.326 196.618 155.293 196.664C155.259 196.71 155.212 196.748 155.158 196.772C154.718 197.024 154.204 197.152 153.683 197.141C153.207 197.143 152.741 197.019 152.342 196.785Z" fill="#F5F8F2"/>
<path d="M148.525 249.799H145.948L145.504 250.824C145.482 250.891 145.436 250.949 145.372 250.989C145.309 251.03 145.233 251.05 145.156 251.047C145.061 251.047 144.97 251.016 144.898 250.961C144.862 250.937 144.834 250.905 144.814 250.868C144.794 250.832 144.784 250.792 144.784 250.751C144.785 250.709 144.794 250.667 144.812 250.627L146.592 246.656C146.642 246.51 146.736 246.379 146.864 246.278C146.976 246.22 147.104 246.189 147.234 246.189C147.364 246.189 147.491 246.22 147.604 246.278C147.733 246.379 147.829 246.509 147.881 246.656L149.651 250.657C149.672 250.696 149.684 250.738 149.684 250.781C149.683 250.822 149.672 250.862 149.652 250.899C149.631 250.935 149.601 250.967 149.565 250.992C149.492 251.047 149.399 251.078 149.303 251.077C149.226 251.079 149.151 251.058 149.089 251.018C149.027 250.978 148.981 250.92 148.959 250.854L148.525 249.799ZM147.236 246.827L146.158 249.315H148.31L147.236 246.827Z" fill="#F5F8F2"/>
<path d="M151.507 250.781C151.134 250.568 150.837 250.263 150.653 249.902C150.457 249.51 150.359 249.084 150.367 248.654C150.365 248.323 150.425 247.994 150.543 247.681C150.647 247.392 150.808 247.123 151.02 246.887C151.238 246.657 151.513 246.475 151.822 246.356C152.158 246.22 152.523 246.153 152.891 246.158C153.365 246.155 153.832 246.263 154.246 246.471C154.295 246.492 154.336 246.525 154.365 246.566C154.394 246.607 154.409 246.654 154.408 246.703C154.409 246.773 154.38 246.84 154.327 246.892C154.303 246.918 154.272 246.938 154.237 246.952C154.203 246.967 154.165 246.974 154.127 246.973C154.084 246.971 154.042 246.963 154.003 246.947L153.912 246.904L153.788 246.849L153.64 246.802L153.445 246.75C153.367 246.734 153.289 246.723 153.211 246.716C153.114 246.711 153.017 246.711 152.92 246.716C152.695 246.713 152.472 246.748 152.261 246.819C152.082 246.881 151.919 246.975 151.784 247.097C151.646 247.223 151.531 247.368 151.445 247.526C151.353 247.694 151.286 247.871 151.245 248.054C151.2 248.253 151.178 248.455 151.178 248.658C151.177 248.861 151.2 249.064 151.245 249.263C151.285 249.445 151.352 249.621 151.445 249.786C151.53 249.947 151.646 250.092 151.789 250.215C151.935 250.338 152.107 250.433 152.294 250.494C152.511 250.561 152.738 250.595 152.967 250.593C153.165 250.596 153.361 250.57 153.55 250.515C153.737 250.453 153.919 250.377 154.094 250.288C154.136 250.264 154.186 250.25 154.237 250.249C154.274 250.249 154.31 250.256 154.344 250.269C154.378 250.282 154.408 250.302 154.432 250.327C154.459 250.35 154.48 250.378 154.494 250.409C154.508 250.44 154.514 250.473 154.513 250.507C154.511 250.562 154.492 250.615 154.46 250.662C154.427 250.708 154.381 250.747 154.327 250.773C153.887 251.023 153.374 251.15 152.853 251.137C152.375 251.142 151.906 251.018 151.507 250.781Z" fill="#F5F8F2"/>
<path d="M148.544 237.058C148.172 236.845 147.877 236.54 147.694 236.179C147.498 235.787 147.4 235.361 147.408 234.931C147.405 234.6 147.463 234.271 147.58 233.957C147.683 233.669 147.845 233.4 148.057 233.164C148.273 232.934 148.546 232.752 148.854 232.632C149.192 232.498 149.558 232.43 149.928 232.435C150.4 232.432 150.866 232.54 151.278 232.748C151.322 232.766 151.36 232.793 151.389 232.827C151.419 232.861 151.438 232.901 151.446 232.943C151.454 232.985 151.45 233.029 151.435 233.07C151.42 233.111 151.394 233.147 151.359 233.177C151.336 233.203 151.306 233.224 151.272 233.238C151.238 233.252 151.201 233.259 151.164 233.258C151.121 233.258 151.078 233.249 151.039 233.233L150.949 233.19L150.82 233.134L150.672 233.087L150.476 233.035C150.399 233.019 150.321 233.008 150.243 233.001C150.146 232.997 150.048 232.997 149.951 233.001C149.727 232.999 149.504 233.034 149.293 233.104C149.114 233.165 148.951 233.26 148.816 233.383C148.678 233.509 148.562 233.654 148.472 233.812C148.38 233.979 148.313 234.156 148.272 234.339C148.229 234.538 148.208 234.741 148.21 234.944C148.208 235.147 148.228 235.349 148.272 235.548C148.312 235.73 148.379 235.906 148.472 236.072C148.56 236.23 148.676 236.375 148.816 236.501C148.963 236.622 149.134 236.717 149.322 236.779C149.538 236.847 149.766 236.88 149.994 236.878C150.192 236.881 150.389 236.855 150.577 236.801C150.765 236.739 150.947 236.663 151.121 236.573C151.164 236.55 151.213 236.537 151.264 236.535C151.301 236.535 151.338 236.542 151.373 236.555C151.407 236.568 151.438 236.588 151.464 236.612C151.516 236.66 151.545 236.725 151.545 236.792C151.543 236.847 151.524 236.901 151.491 236.947C151.459 236.994 151.413 237.032 151.359 237.058C150.918 237.307 150.405 237.434 149.885 237.423C149.407 237.424 148.94 237.297 148.544 237.058Z" fill="#F5F8F2"/>
<path d="M146.649 207.862C146.426 207.59 146.306 207.261 146.306 206.923C146.306 206.585 146.426 206.256 146.649 205.984C146.763 205.857 146.909 205.756 147.075 205.691C147.242 205.625 147.423 205.596 147.604 205.606C147.802 205.604 147.997 205.642 148.176 205.718C148.337 205.788 148.477 205.892 148.582 206.022C148.681 206.154 148.757 206.299 148.806 206.451C148.859 206.605 148.884 206.766 148.883 206.927C148.896 207.268 148.772 207.601 148.534 207.866C148.417 207.983 148.273 208.077 148.113 208.14C147.952 208.204 147.779 208.237 147.604 208.237C147.428 208.237 147.255 208.204 147.095 208.14C146.934 208.077 146.791 207.983 146.673 207.866L146.649 207.862ZM148 207.716C148.11 207.624 148.191 207.507 148.234 207.377C148.278 207.228 148.299 207.073 148.296 206.919C148.292 206.772 148.266 206.626 148.219 206.485C148.179 206.355 148.098 206.237 147.985 206.147C147.87 206.054 147.72 206.005 147.566 206.009C147.413 206.005 147.264 206.054 147.15 206.147C147.04 206.238 146.959 206.356 146.917 206.485C146.872 206.634 146.851 206.787 146.855 206.94C146.852 207.095 146.872 207.249 146.917 207.399C146.961 207.528 147.042 207.644 147.15 207.738C147.264 207.83 147.413 207.879 147.566 207.875C147.646 207.876 147.726 207.862 147.8 207.835C147.875 207.808 147.943 207.767 148 207.716ZM147.632 210.534C147.611 210.516 147.594 210.495 147.583 210.472C147.571 210.448 147.565 210.422 147.566 210.397C147.569 210.355 147.584 210.316 147.608 210.281L150.534 205.628C150.552 205.59 150.583 205.558 150.62 205.536C150.658 205.513 150.703 205.5 150.748 205.499C150.777 205.499 150.805 205.503 150.831 205.513C150.857 205.522 150.881 205.537 150.901 205.555C150.941 205.593 150.963 205.644 150.963 205.696C150.96 205.746 150.943 205.795 150.915 205.838L148 210.461C147.982 210.497 147.954 210.529 147.917 210.551C147.881 210.574 147.839 210.587 147.795 210.589C147.735 210.59 147.677 210.57 147.632 210.534ZM150.252 210.105C150.019 209.834 149.899 209.499 149.913 209.157C149.9 208.819 150.024 208.489 150.262 208.227C150.372 208.103 150.514 208.005 150.675 207.939C150.835 207.874 151.011 207.843 151.187 207.849C151.386 207.846 151.582 207.886 151.76 207.965C151.92 208.032 152.058 208.136 152.161 208.265C152.261 208.396 152.336 208.541 152.385 208.694C152.437 208.848 152.463 209.009 152.462 209.17C152.466 209.397 152.416 209.623 152.314 209.83C152.218 210.023 152.064 210.188 151.87 210.306C151.618 210.451 151.319 210.511 151.023 210.477C150.727 210.442 150.454 210.315 150.252 210.118V210.105ZM151.603 209.955C151.712 209.864 151.793 209.748 151.836 209.62C151.88 209.469 151.901 209.313 151.898 209.157C151.901 209.04 151.888 208.924 151.86 208.81C151.838 208.708 151.799 208.61 151.746 208.518C151.693 208.427 151.613 208.351 151.514 208.299C151.415 208.248 151.302 208.222 151.187 208.227C151.033 208.223 150.883 208.272 150.767 208.364C150.657 208.455 150.578 208.572 150.538 208.703C150.449 209.002 150.449 209.317 150.538 209.616C150.578 209.746 150.657 209.864 150.767 209.955C150.883 210.047 151.033 210.096 151.187 210.092C151.342 210.093 151.491 210.039 151.603 209.942V209.955Z" fill="#F5F8F2"/>
<path d="M166.314 210.264C166.278 210.237 166.249 210.203 166.229 210.164C166.209 210.125 166.199 210.083 166.2 210.041C166.201 209.99 166.214 209.941 166.238 209.895L168.07 206.112H165.603C165.562 206.114 165.52 206.107 165.482 206.093C165.443 206.079 165.408 206.058 165.379 206.031C165.326 205.98 165.297 205.912 165.297 205.842C165.297 205.772 165.326 205.705 165.379 205.654C165.407 205.626 165.442 205.604 165.481 205.59C165.52 205.576 165.562 205.57 165.603 205.572H168.467C168.578 205.567 168.688 205.598 168.777 205.658C168.813 205.687 168.842 205.722 168.861 205.762C168.88 205.803 168.889 205.846 168.886 205.889C168.885 205.988 168.863 206.086 168.82 206.177L166.911 210.165C166.887 210.223 166.843 210.273 166.786 210.307C166.728 210.341 166.66 210.358 166.591 210.354C166.49 210.356 166.391 210.324 166.314 210.264Z" fill="#F5F8F2"/>
<path d="M183.532 210.277C183.266 210.182 183.037 210.02 182.873 209.809C182.704 209.592 182.617 209.332 182.625 209.067C182.62 208.787 182.717 208.513 182.902 208.287C183.096 208.061 183.377 207.908 183.689 207.858C183.4 207.81 183.141 207.67 182.959 207.463C182.791 207.259 182.703 207.01 182.711 206.756C182.703 206.502 182.789 206.254 182.954 206.048C183.114 205.854 183.332 205.705 183.584 205.619C183.867 205.522 184.168 205.474 184.472 205.478C184.705 205.478 184.938 205.505 185.164 205.559C185.363 205.611 185.552 205.693 185.722 205.799C185.883 205.906 186.014 206.046 186.104 206.207C186.197 206.381 186.244 206.571 186.242 206.764C186.251 207.021 186.161 207.272 185.989 207.476C185.808 207.679 185.553 207.817 185.269 207.866C185.578 207.927 185.857 208.078 186.061 208.295C186.244 208.517 186.338 208.787 186.328 209.063C186.332 209.327 186.245 209.586 186.08 209.805C185.913 210.015 185.683 210.177 185.416 210.272C184.808 210.472 184.14 210.472 183.532 210.272V210.277ZM185.264 209.706C185.368 209.63 185.45 209.533 185.503 209.423C185.556 209.312 185.579 209.192 185.569 209.072C185.576 208.945 185.552 208.819 185.499 208.701C185.445 208.584 185.363 208.479 185.259 208.394C185.039 208.232 184.761 208.148 184.476 208.158C184.191 208.148 183.911 208.231 183.689 208.394C183.584 208.479 183.501 208.584 183.447 208.701C183.392 208.818 183.367 208.945 183.374 209.072C183.368 209.242 183.421 209.41 183.527 209.552C183.625 209.678 183.763 209.775 183.923 209.831C184.099 209.892 184.287 209.921 184.476 209.916C184.753 209.925 185.025 209.851 185.249 209.706H185.264ZM185.264 207.348C185.359 207.274 185.434 207.181 185.483 207.077C185.532 206.973 185.553 206.86 185.545 206.747C185.554 206.634 185.532 206.52 185.479 206.417C185.427 206.313 185.346 206.223 185.245 206.155C185.024 206.021 184.762 205.954 184.495 205.962C184.364 205.963 184.232 205.977 184.104 206.005C183.986 206.034 183.873 206.078 183.77 206.138C183.667 206.2 183.584 206.286 183.532 206.387C183.472 206.499 183.443 206.623 183.446 206.747C183.438 206.86 183.459 206.973 183.508 207.077C183.557 207.181 183.632 207.274 183.727 207.348C183.956 207.482 184.223 207.553 184.495 207.553C184.768 207.553 185.035 207.482 185.264 207.348Z" fill="#F5F8F2"/>
<path d="M199.861 210.178C199.816 210.16 199.778 210.131 199.753 210.093C199.727 210.055 199.715 210.012 199.718 209.968C199.719 209.892 199.747 209.818 199.799 209.758C199.821 209.728 199.85 209.704 199.884 209.687C199.918 209.67 199.956 209.66 199.995 209.659C200.026 209.66 200.057 209.668 200.085 209.68C200.383 209.811 200.709 209.88 201.04 209.882C201.201 209.886 201.361 209.868 201.517 209.83C201.641 209.801 201.759 209.753 201.865 209.689C201.963 209.626 202.047 209.548 202.113 209.457C202.184 209.364 202.241 209.263 202.285 209.157C202.334 209.036 202.369 208.911 202.39 208.784C202.418 208.642 202.435 208.499 202.443 208.355C202.443 208.218 202.443 208.059 202.443 207.888C202.363 208.092 202.203 208.264 201.994 208.372C201.739 208.514 201.444 208.587 201.145 208.582C200.918 208.591 200.691 208.557 200.479 208.483C200.268 208.409 200.075 208.297 199.914 208.154C199.755 208.008 199.631 207.836 199.549 207.646C199.467 207.457 199.429 207.255 199.436 207.051C199.426 206.842 199.463 206.632 199.545 206.435C199.627 206.238 199.752 206.058 199.914 205.906C200.088 205.758 200.295 205.644 200.52 205.57C200.746 205.496 200.986 205.465 201.226 205.478C201.493 205.475 201.758 205.516 202.008 205.598C202.219 205.668 202.411 205.777 202.571 205.919C202.724 206.061 202.847 206.227 202.934 206.408C203.03 206.597 203.097 206.796 203.135 207C203.174 207.22 203.193 207.442 203.192 207.665C203.192 207.862 203.192 208.042 203.192 208.214C203.192 208.385 203.149 208.565 203.111 208.758C203.073 208.935 203.019 209.109 202.948 209.277C202.882 209.439 202.792 209.592 202.681 209.732C202.575 209.875 202.443 210.001 202.29 210.105C202.125 210.212 201.941 210.293 201.746 210.345C201.511 210.404 201.269 210.433 201.025 210.431C200.621 210.43 200.222 210.343 199.861 210.178ZM202.061 207.823C202.166 207.718 202.247 207.596 202.3 207.463C202.352 207.329 202.375 207.188 202.366 207.047C202.376 206.777 202.274 206.512 202.08 206.305C201.98 206.204 201.855 206.124 201.715 206.072C201.576 206.02 201.424 205.997 201.274 206.005C201.121 205.996 200.968 206.017 200.825 206.067C200.683 206.116 200.554 206.193 200.448 206.292C200.248 206.505 200.145 206.778 200.162 207.056C200.148 207.329 200.241 207.597 200.424 207.815C200.517 207.917 200.636 207.997 200.77 208.048C200.905 208.1 201.051 208.121 201.197 208.111C201.356 208.12 201.514 208.1 201.663 208.05C201.812 208.001 201.948 207.923 202.061 207.823Z" fill="#F5F8F2"/>
<path d="M167.841 223.567C167.806 223.539 167.777 223.505 167.758 223.466C167.739 223.428 167.73 223.386 167.732 223.344V222.602H165.594C165.542 222.604 165.49 222.595 165.442 222.576C165.394 222.558 165.351 222.53 165.317 222.495C165.247 222.429 165.21 222.341 165.212 222.25C165.214 222.176 165.237 222.104 165.279 222.04L167.326 219.154C167.386 219.056 167.475 218.975 167.583 218.919C167.69 218.863 167.813 218.835 167.937 218.836C168.073 218.833 168.205 218.874 168.309 218.952C168.363 218.996 168.404 219.051 168.431 219.112C168.457 219.173 168.468 219.239 168.462 219.304V222.109H169.001C169.039 222.107 169.077 222.112 169.113 222.125C169.148 222.137 169.18 222.157 169.206 222.181C169.253 222.229 169.279 222.29 169.278 222.353C169.28 222.418 169.254 222.481 169.206 222.529C169.18 222.554 169.148 222.573 169.113 222.586C169.077 222.598 169.039 222.604 169.001 222.602H168.457V223.344C168.459 223.386 168.45 223.428 168.431 223.466C168.412 223.505 168.383 223.539 168.347 223.567C168.278 223.62 168.19 223.649 168.099 223.648C168.005 223.649 167.914 223.62 167.841 223.567ZM167.732 222.109V219.535L165.942 222.109H167.732Z" fill="#F5F8F2"/>
<path d="M183.66 223.584C183.396 223.488 183.152 223.351 182.94 223.181C182.917 223.163 182.898 223.14 182.886 223.115C182.873 223.09 182.867 223.062 182.868 223.035C182.871 222.956 182.906 222.881 182.968 222.825C182.995 222.796 183.027 222.772 183.064 222.755C183.101 222.738 183.142 222.728 183.183 222.726C183.232 222.726 183.279 222.741 183.317 222.769C183.643 223.032 184.067 223.176 184.505 223.172C184.658 223.182 184.812 223.163 184.957 223.117C185.101 223.07 185.234 222.997 185.345 222.902C185.547 222.69 185.649 222.417 185.631 222.138C185.643 221.875 185.542 221.617 185.35 221.418C185.255 221.326 185.14 221.254 185.011 221.207C184.883 221.159 184.744 221.138 184.605 221.144C184.399 221.146 184.195 221.188 184.009 221.268C183.825 221.337 183.662 221.442 183.532 221.577C183.511 221.592 183.488 221.604 183.462 221.612C183.437 221.619 183.41 221.622 183.384 221.62C183.277 221.618 183.172 221.593 183.078 221.547C182.973 221.495 182.926 221.439 182.926 221.371V219.175C182.926 218.974 183.045 218.871 183.288 218.871H185.741C185.779 218.868 185.818 218.874 185.854 218.887C185.889 218.901 185.921 218.921 185.946 218.948C185.995 218.998 186.022 219.062 186.023 219.128C186.023 219.194 185.998 219.258 185.951 219.308C185.924 219.333 185.891 219.352 185.855 219.365C185.819 219.378 185.78 219.383 185.741 219.381H183.532V221.006L183.579 220.963C183.621 220.929 183.665 220.897 183.713 220.869C183.786 220.826 183.863 220.787 183.942 220.753C184.048 220.712 184.158 220.68 184.271 220.659C184.413 220.633 184.556 220.62 184.701 220.62C184.923 220.61 185.145 220.644 185.351 220.718C185.558 220.792 185.745 220.905 185.898 221.049C186.206 221.35 186.369 221.747 186.352 222.156C186.361 222.367 186.321 222.577 186.233 222.773C186.145 222.969 186.011 223.146 185.841 223.292C185.485 223.583 185.015 223.737 184.534 223.721C184.236 223.725 183.939 223.679 183.66 223.584Z" fill="#F5F8F2"/>
<path d="M200.634 223.596C200.421 223.53 200.229 223.42 200.071 223.275C199.919 223.134 199.796 222.97 199.708 222.79C199.614 222.6 199.546 222.4 199.508 222.194C199.468 221.974 199.449 221.752 199.451 221.529C199.451 221.336 199.451 221.152 199.451 220.985C199.467 220.802 199.496 220.62 199.537 220.44C199.57 220.262 199.623 220.086 199.694 219.917C199.763 219.757 199.853 219.604 199.961 219.462C200.187 219.162 200.526 218.946 200.916 218.853C201.148 218.791 201.389 218.761 201.631 218.763C202.034 218.766 202.431 218.851 202.791 219.012C202.835 219.032 202.872 219.062 202.896 219.1C202.921 219.139 202.933 219.182 202.929 219.227C202.928 219.303 202.9 219.376 202.848 219.437C202.827 219.466 202.798 219.49 202.764 219.506C202.73 219.522 202.691 219.531 202.653 219.531C202.621 219.531 202.59 219.524 202.562 219.51C202.264 219.381 201.938 219.312 201.608 219.308C201.455 219.306 201.302 219.324 201.154 219.359C201.032 219.392 200.916 219.442 200.811 219.505C200.711 219.567 200.625 219.646 200.558 219.737C200.487 219.83 200.429 219.931 200.386 220.037C200.337 220.156 200.302 220.28 200.281 220.406C200.254 220.548 200.236 220.691 200.229 220.835C200.229 220.972 200.229 221.126 200.229 221.302C200.304 221.095 200.465 220.922 200.677 220.818C200.931 220.673 201.226 220.6 201.526 220.607C201.753 220.597 201.979 220.629 202.191 220.703C202.402 220.776 202.594 220.888 202.754 221.033C202.914 221.177 203.038 221.35 203.118 221.541C203.199 221.731 203.234 221.935 203.221 222.138C203.231 222.348 203.194 222.557 203.112 222.753C203.03 222.949 202.904 223.128 202.743 223.279C202.569 223.427 202.362 223.542 202.137 223.615C201.911 223.689 201.671 223.721 201.431 223.708C201.16 223.718 200.889 223.68 200.634 223.596ZM200.591 221.371C200.397 221.585 200.29 221.853 200.29 222.13C200.29 222.406 200.397 222.675 200.591 222.889C200.693 222.989 200.818 223.068 200.957 223.119C201.097 223.17 201.247 223.193 201.398 223.185C201.55 223.194 201.702 223.173 201.845 223.124C201.987 223.075 202.116 223 202.223 222.902C202.424 222.688 202.526 222.413 202.509 222.134C202.522 221.862 202.431 221.594 202.252 221.375C202.156 221.275 202.036 221.197 201.901 221.146C201.766 221.094 201.62 221.072 201.474 221.079C201.312 221.068 201.15 221.088 200.997 221.139C200.845 221.189 200.706 221.268 200.591 221.371Z" fill="#F5F8F2"/>
<path d="M167.149 237.496C167.113 237.466 167.084 237.43 167.065 237.389C167.046 237.348 167.037 237.304 167.04 237.26V233.503L166.233 233.932C166.189 233.957 166.138 233.97 166.085 233.97C166.032 233.967 165.98 233.948 165.939 233.918C165.897 233.887 165.866 233.846 165.85 233.8C165.835 233.754 165.835 233.704 165.852 233.658C165.868 233.612 165.9 233.571 165.942 233.542L167.226 232.821C167.288 232.788 167.359 232.772 167.431 232.774C167.477 232.772 167.524 232.779 167.567 232.794C167.611 232.809 167.65 232.831 167.684 232.86C167.719 232.892 167.746 232.93 167.763 232.972C167.781 233.014 167.788 233.059 167.784 233.104V237.26C167.787 237.304 167.778 237.348 167.759 237.389C167.74 237.43 167.711 237.466 167.674 237.496C167.599 237.551 167.505 237.582 167.407 237.581C167.313 237.581 167.222 237.55 167.149 237.496Z" fill="#F5F8F2"/>
<path d="M185.951 234.828C185.773 235.11 185.542 235.363 185.268 235.574L183.56 237.071H185.812C185.853 237.069 185.893 237.075 185.931 237.087C185.968 237.1 186.003 237.119 186.032 237.144C186.082 237.193 186.11 237.257 186.108 237.324C186.11 237.357 186.104 237.39 186.091 237.421C186.078 237.452 186.058 237.48 186.032 237.504C186.004 237.53 185.97 237.551 185.932 237.564C185.894 237.578 185.853 237.583 185.812 237.581H183.236C183.109 237.585 182.984 237.551 182.883 237.483C182.84 237.453 182.806 237.416 182.783 237.372C182.76 237.329 182.748 237.282 182.749 237.234C182.752 237.171 182.769 237.109 182.799 237.052C182.83 236.996 182.873 236.945 182.925 236.904L184.872 235.133C185.044 234.978 185.193 234.805 185.316 234.618C185.408 234.476 185.457 234.315 185.459 234.15C185.464 234.031 185.441 233.912 185.392 233.802C185.342 233.691 185.268 233.591 185.173 233.507C185.08 233.427 184.97 233.364 184.85 233.322C184.729 233.28 184.601 233.26 184.472 233.263C184.311 233.26 184.151 233.274 183.994 233.306C183.894 233.322 183.795 233.347 183.699 233.379C183.608 233.414 183.52 233.456 183.436 233.503L183.226 233.614C183.191 233.628 183.154 233.635 183.116 233.636C183.077 233.636 183.039 233.628 183.003 233.613C182.968 233.599 182.936 233.577 182.911 233.55C182.882 233.525 182.859 233.495 182.843 233.462C182.828 233.429 182.82 233.393 182.82 233.357C182.821 233.314 182.834 233.272 182.86 233.236C182.885 233.2 182.921 233.17 182.964 233.151C183.187 233.025 183.426 232.921 183.675 232.842C183.944 232.764 184.227 232.728 184.51 232.735C184.942 232.724 185.362 232.865 185.679 233.13C185.829 233.251 185.949 233.399 186.032 233.564C186.114 233.73 186.156 233.909 186.156 234.09C186.157 234.348 186.087 234.601 185.951 234.828Z" fill="#F5F8F2"/>
<path d="M199.961 237.401C199.905 237.382 199.856 237.348 199.821 237.303C199.787 237.259 199.767 237.207 199.766 237.152C199.764 237.079 199.795 237.008 199.851 236.955C199.876 236.929 199.907 236.908 199.941 236.893C199.976 236.878 200.014 236.87 200.052 236.869C200.084 236.866 200.116 236.866 200.147 236.869C200.468 237.011 200.82 237.087 201.178 237.092C201.465 237.105 201.749 237.031 201.985 236.882C202.086 236.815 202.167 236.726 202.221 236.623C202.275 236.521 202.301 236.408 202.295 236.295C202.3 236.161 202.271 236.027 202.209 235.905C202.147 235.783 202.054 235.675 201.937 235.591C201.679 235.41 201.357 235.318 201.03 235.33H200.758C200.721 235.333 200.684 235.328 200.65 235.315C200.616 235.302 200.586 235.282 200.562 235.257C200.538 235.234 200.52 235.207 200.507 235.178C200.495 235.148 200.489 235.117 200.491 235.085C200.489 235.021 200.514 234.958 200.562 234.91C200.586 234.884 200.616 234.864 200.65 234.852C200.684 234.839 200.721 234.834 200.758 234.837H201.002C201.3 234.849 201.595 234.774 201.841 234.622C201.946 234.549 202.029 234.455 202.084 234.346C202.139 234.238 202.164 234.119 202.156 234C202.162 233.892 202.139 233.783 202.09 233.684C202.04 233.585 201.965 233.498 201.87 233.43C201.667 233.293 201.418 233.222 201.164 233.228C200.783 233.227 200.407 233.306 200.066 233.46C200.038 233.465 200.009 233.465 199.98 233.46C199.941 233.459 199.902 233.449 199.867 233.432C199.832 233.415 199.802 233.391 199.78 233.361C199.725 233.303 199.694 233.228 199.694 233.151C199.692 233.112 199.703 233.073 199.725 233.039C199.747 233.005 199.779 232.977 199.818 232.958C199.998 232.871 200.191 232.806 200.391 232.765C200.646 232.702 200.909 232.669 201.173 232.667C201.473 232.663 201.771 232.71 202.051 232.804C202.3 232.892 202.517 233.04 202.676 233.233C202.839 233.446 202.922 233.699 202.915 233.958C202.923 234.201 202.835 234.44 202.667 234.631C202.493 234.815 202.265 234.952 202.008 235.025C202.309 235.081 202.577 235.234 202.762 235.454C202.952 235.684 203.052 235.965 203.044 236.252C203.047 236.463 202.995 236.672 202.891 236.861C202.796 237.034 202.653 237.181 202.476 237.29C202.3 237.397 202.104 237.476 201.899 237.526C201.674 237.578 201.443 237.604 201.211 237.603C200.783 237.63 200.353 237.561 199.961 237.401Z" fill="#F5F8F2"/>
<path d="M166.386 250.601C166.177 250.518 165.991 250.393 165.842 250.237C165.696 250.071 165.581 249.884 165.503 249.684C165.413 249.468 165.351 249.243 165.317 249.015C165.282 248.766 165.264 248.515 165.265 248.264C165.265 246.609 165.893 245.781 167.149 245.781C168.4 245.781 169.03 246.609 169.03 248.264C169.03 248.514 169.012 248.763 168.977 249.01C168.943 249.239 168.881 249.463 168.791 249.679C168.715 249.88 168.601 250.067 168.452 250.232C168.306 250.389 168.121 250.514 167.913 250.597C167.673 250.693 167.412 250.74 167.149 250.734C166.887 250.74 166.627 250.695 166.386 250.601ZM167.522 250.125C167.627 250.084 167.722 250.026 167.803 249.954C167.882 249.874 167.948 249.784 167.999 249.688C168.055 249.586 168.099 249.48 168.132 249.37C168.167 249.251 168.193 249.129 168.209 249.006C168.209 248.869 168.242 248.744 168.247 248.629C168.252 248.513 168.247 248.393 168.247 248.264C168.247 248.135 168.247 247.994 168.247 247.878C168.247 247.762 168.247 247.634 168.209 247.496C168.192 247.373 168.165 247.251 168.128 247.132C168.095 247.023 168.05 246.916 167.994 246.815C167.946 246.719 167.88 246.632 167.798 246.557C167.718 246.485 167.623 246.428 167.517 246.39C167.28 246.304 167.015 246.304 166.777 246.39C166.674 246.428 166.58 246.483 166.5 246.553C166.419 246.628 166.351 246.715 166.3 246.81C166.244 246.912 166.2 247.018 166.166 247.128C166.138 247.235 166.114 247.359 166.09 247.496C166.066 247.634 166.057 247.758 166.052 247.878C166.047 247.998 166.052 248.123 166.052 248.264C166.052 248.406 166.052 248.517 166.052 248.633C166.052 248.749 166.052 248.873 166.09 249.006C166.106 249.129 166.131 249.251 166.166 249.37C166.2 249.481 166.244 249.589 166.3 249.692C166.348 249.789 166.414 249.877 166.496 249.954C166.576 250.027 166.672 250.085 166.777 250.125C166.895 250.17 167.022 250.191 167.149 250.19C167.277 250.191 167.404 250.169 167.522 250.125Z" fill="#F5F8F2"/>
<path d="M183.77 249.049C183.615 248.905 183.529 248.713 183.532 248.513C183.531 248.411 183.554 248.309 183.599 248.216C183.644 248.122 183.711 248.038 183.794 247.968C183.884 247.888 183.992 247.826 184.11 247.785C184.228 247.745 184.355 247.726 184.481 247.732C184.734 247.725 184.979 247.808 185.164 247.964C185.247 248.034 185.314 248.119 185.359 248.213C185.404 248.308 185.427 248.41 185.426 248.513C185.427 248.616 185.405 248.719 185.36 248.815C185.316 248.911 185.251 248.998 185.168 249.07C185.076 249.148 184.968 249.208 184.85 249.248C184.733 249.288 184.607 249.306 184.481 249.302C184.35 249.306 184.219 249.286 184.096 249.242C183.974 249.199 183.863 249.133 183.77 249.049Z" fill="#F5F8F2"/>
<path d="M218.414 192.561C218.334 192.491 218.271 192.408 218.227 192.316C218.184 192.224 218.162 192.125 218.162 192.025C218.162 191.925 218.184 191.826 218.227 191.734C218.271 191.642 218.334 191.558 218.414 191.489C218.599 191.344 218.835 191.264 219.08 191.264C219.325 191.264 219.561 191.344 219.746 191.489C219.828 191.557 219.893 191.64 219.937 191.732C219.982 191.825 220.004 191.924 220.003 192.025C220.004 192.126 219.982 192.225 219.938 192.318C219.895 192.411 219.831 192.495 219.75 192.565C219.566 192.712 219.329 192.793 219.082 192.793C218.836 192.793 218.598 192.712 218.414 192.565V192.561Z" fill="#F5F8F2"/>
<path d="M218.414 197.051C218.334 196.98 218.27 196.895 218.226 196.802C218.183 196.708 218.161 196.608 218.161 196.506C218.161 196.407 218.184 196.31 218.227 196.219C218.271 196.128 218.334 196.046 218.414 195.979C218.502 195.902 218.607 195.842 218.722 195.803C218.837 195.764 218.96 195.746 219.082 195.751C219.204 195.747 219.325 195.764 219.439 195.802C219.553 195.841 219.657 195.899 219.746 195.974C219.828 196.042 219.893 196.124 219.937 196.216C219.981 196.307 220.004 196.406 220.003 196.506C220.004 196.608 219.982 196.708 219.939 196.802C219.895 196.895 219.831 196.98 219.75 197.051C219.566 197.198 219.329 197.279 219.082 197.279C218.836 197.279 218.599 197.198 218.414 197.051Z" fill="#F5F8F2"/>
<path d="M198.802 248.084C198.76 248.048 198.726 248.005 198.703 247.957C198.68 247.909 198.668 247.857 198.668 247.805C198.666 247.75 198.677 247.696 198.701 247.645C198.725 247.595 198.761 247.55 198.806 247.514C198.904 247.437 199.03 247.397 199.16 247.402H204.471C204.533 247.399 204.596 247.408 204.655 247.427C204.714 247.446 204.768 247.476 204.814 247.514C204.863 247.548 204.902 247.593 204.927 247.643C204.953 247.694 204.965 247.75 204.962 247.805C204.963 247.859 204.95 247.913 204.925 247.962C204.899 248.011 204.861 248.054 204.814 248.088C204.719 248.162 204.597 248.202 204.471 248.2H199.126C199.006 248.199 198.89 248.158 198.802 248.084ZM198.802 250.284C198.759 250.249 198.725 250.207 198.702 250.16C198.679 250.112 198.667 250.061 198.668 250.009C198.667 249.955 198.678 249.9 198.702 249.85C198.726 249.8 198.761 249.755 198.806 249.718C198.905 249.643 199.031 249.604 199.16 249.606H204.49C204.613 249.603 204.733 249.643 204.824 249.718C204.87 249.754 204.906 249.799 204.93 249.85C204.954 249.9 204.965 249.955 204.962 250.009C204.963 250.063 204.951 250.115 204.926 250.164C204.902 250.212 204.865 250.255 204.819 250.288C204.724 250.362 204.601 250.402 204.476 250.4H199.107C198.996 250.4 198.888 250.365 198.802 250.301V250.284Z" fill="#F5F8F2"/>
<path d="M218.662 208.407L217.169 210.208C217.136 210.254 217.092 210.292 217.04 210.318C216.987 210.345 216.928 210.36 216.868 210.362C216.825 210.363 216.783 210.355 216.744 210.341C216.704 210.326 216.669 210.304 216.639 210.277C216.608 210.251 216.583 210.22 216.565 210.185C216.548 210.151 216.539 210.113 216.539 210.075C216.539 210.008 216.564 209.943 216.61 209.891L218.276 207.935L216.711 206.018C216.672 205.978 216.652 205.926 216.653 205.872C216.654 205.829 216.666 205.786 216.686 205.747C216.707 205.708 216.736 205.673 216.773 205.645C216.844 205.582 216.94 205.546 217.04 205.546C217.097 205.547 217.154 205.561 217.204 205.586C217.254 205.612 217.296 205.648 217.326 205.692L218.758 207.438L220.189 205.696C220.223 205.65 220.269 205.612 220.323 205.585C220.377 205.558 220.438 205.543 220.5 205.542C220.581 205.541 220.66 205.569 220.719 205.619C220.748 205.642 220.771 205.671 220.787 205.703C220.802 205.734 220.81 205.769 220.81 205.804C220.809 205.866 220.785 205.926 220.743 205.975L219.135 207.918L220.733 209.882C220.775 209.931 220.799 209.991 220.8 210.054C220.799 210.094 220.788 210.134 220.767 210.171C220.746 210.207 220.717 210.239 220.681 210.264C220.606 210.321 220.512 210.353 220.414 210.354C220.358 210.355 220.303 210.344 220.254 210.32C220.204 210.297 220.162 210.263 220.132 210.221L218.662 208.407Z" fill="#F5F8F2"/>
<path d="M218.538 245.807C218.489 245.76 218.45 245.705 218.425 245.644C218.399 245.584 218.388 245.52 218.39 245.455V243.229H215.813C215.667 243.233 215.525 243.185 215.417 243.096C215.363 243.056 215.32 243.006 215.29 242.949C215.26 242.892 215.245 242.829 215.245 242.766C215.245 242.703 215.26 242.641 215.29 242.584C215.32 242.527 215.363 242.476 215.417 242.436C215.528 242.35 215.672 242.305 215.818 242.312H218.395V240.064C218.393 240.001 218.405 239.937 218.43 239.877C218.456 239.818 218.494 239.763 218.543 239.717C218.59 239.669 218.649 239.63 218.715 239.605C218.781 239.58 218.853 239.568 218.925 239.571C218.996 239.569 219.067 239.581 219.132 239.605C219.198 239.63 219.258 239.666 219.307 239.713C219.356 239.76 219.395 239.815 219.42 239.875C219.445 239.936 219.457 240 219.454 240.064V242.312H222.036C222.182 242.308 222.325 242.352 222.437 242.436C222.49 242.477 222.532 242.527 222.561 242.584C222.59 242.642 222.605 242.704 222.604 242.766C222.605 242.829 222.59 242.891 222.561 242.948C222.532 243.005 222.49 243.056 222.437 243.096C222.327 243.186 222.184 243.233 222.036 243.229H219.454V245.455C219.456 245.518 219.444 245.581 219.419 245.64C219.393 245.699 219.355 245.753 219.307 245.798C219.259 245.847 219.2 245.885 219.134 245.91C219.068 245.936 218.997 245.947 218.925 245.944C218.853 245.947 218.782 245.936 218.715 245.913C218.648 245.889 218.588 245.853 218.538 245.807Z" fill="#F5F8F2"/>
<path d="M147.002 223.086C146.966 223.053 146.938 223.013 146.919 222.97C146.9 222.926 146.891 222.88 146.893 222.833V221.212H145.022C144.915 221.215 144.811 221.181 144.731 221.118C144.693 221.088 144.662 221.051 144.641 221.01C144.62 220.968 144.609 220.923 144.609 220.878C144.609 220.832 144.62 220.787 144.641 220.746C144.662 220.704 144.693 220.667 144.731 220.637C144.813 220.574 144.919 220.541 145.027 220.543H146.897V218.922C146.896 218.827 146.935 218.734 147.007 218.665C147.042 218.631 147.085 218.604 147.133 218.586C147.181 218.568 147.232 218.56 147.284 218.562C147.336 218.56 147.387 218.569 147.435 218.587C147.482 218.604 147.525 218.631 147.561 218.665C147.633 218.734 147.673 218.827 147.671 218.922V220.552H149.551C149.656 220.551 149.757 220.585 149.837 220.646C149.877 220.675 149.909 220.711 149.93 220.753C149.952 220.795 149.962 220.84 149.961 220.886C149.961 220.931 149.951 220.976 149.93 221.018C149.909 221.059 149.879 221.096 149.842 221.126C149.762 221.19 149.658 221.224 149.551 221.221H147.671V222.842C147.671 222.934 147.632 223.023 147.561 223.09C147.526 223.126 147.484 223.153 147.436 223.172C147.388 223.19 147.336 223.199 147.284 223.198C147.231 223.199 147.178 223.19 147.129 223.17C147.081 223.151 147.037 223.122 147.002 223.086Z" fill="#F5F8F2"/>
<path d="M216.028 221.714C215.994 221.695 215.965 221.668 215.945 221.636C215.926 221.604 215.915 221.568 215.915 221.532C215.915 221.495 215.926 221.459 215.945 221.427C215.965 221.395 215.994 221.369 216.028 221.349C216.124 221.293 216.238 221.266 216.353 221.272H221.492C221.605 221.266 221.717 221.293 221.812 221.349C221.846 221.37 221.873 221.397 221.893 221.429C221.913 221.461 221.925 221.497 221.926 221.534C221.925 221.57 221.914 221.605 221.894 221.636C221.874 221.668 221.846 221.694 221.812 221.714C221.717 221.77 221.605 221.797 221.492 221.791H216.353C216.238 221.797 216.124 221.77 216.028 221.714Z" fill="#F5F8F2"/>
<path d="M150.777 224C150.751 223.976 150.73 223.948 150.716 223.917C150.703 223.886 150.696 223.853 150.696 223.82C150.695 223.751 150.724 223.685 150.777 223.635C150.805 223.609 150.838 223.589 150.875 223.575C150.912 223.562 150.952 223.556 150.992 223.558H154.466C154.506 223.555 154.547 223.561 154.584 223.576C154.621 223.59 154.654 223.612 154.68 223.639C154.732 223.688 154.761 223.752 154.762 223.82C154.762 223.853 154.756 223.886 154.742 223.917C154.728 223.948 154.707 223.976 154.68 224C154.653 224.026 154.62 224.046 154.583 224.06C154.546 224.073 154.506 224.079 154.466 224.077H150.992C150.952 224.079 150.912 224.073 150.875 224.059C150.838 224.046 150.805 224.026 150.777 224Z" fill="#F5F8F2"/>
<path d="M148.778 224.926C148.743 224.955 148.7 224.974 148.653 224.982C148.607 224.989 148.559 224.985 148.515 224.969C148.448 224.935 148.42 224.857 148.424 224.746C148.442 224.593 148.499 224.446 148.592 224.317L152.409 218.36C152.48 218.226 152.589 218.111 152.724 218.026C152.759 217.997 152.802 217.978 152.848 217.97C152.895 217.962 152.943 217.967 152.986 217.983C153.053 218.017 153.082 218.094 153.072 218.206C153.055 218.359 152.998 218.506 152.905 218.635L149.088 224.591C149.013 224.722 148.907 224.836 148.778 224.926Z" fill="#F5F8F2"/>
<path d="M216.028 194.478C215.994 194.459 215.965 194.432 215.945 194.4C215.926 194.368 215.915 194.332 215.915 194.295C215.915 194.259 215.926 194.223 215.945 194.191C215.965 194.159 215.994 194.132 216.028 194.113C216.124 194.057 216.238 194.03 216.353 194.036H221.492C221.605 194.03 221.717 194.057 221.812 194.113C221.846 194.134 221.873 194.161 221.893 194.193C221.913 194.225 221.925 194.261 221.926 194.298C221.925 194.334 221.914 194.369 221.894 194.4C221.874 194.432 221.846 194.458 221.812 194.478C221.717 194.534 221.605 194.561 221.492 194.555H216.353C216.238 194.561 216.124 194.534 216.028 194.478Z" fill="#F5F8F2"/>
<path d="M164.41 196.836C164.325 196.781 164.257 196.705 164.215 196.618L162.468 193.097V196.759C162.47 196.794 162.461 196.829 162.444 196.861C162.426 196.892 162.4 196.919 162.368 196.939C162.294 196.983 162.208 197.005 162.12 197.004C162.033 197.005 161.949 196.982 161.876 196.939C161.844 196.919 161.817 196.893 161.799 196.861C161.78 196.83 161.771 196.795 161.772 196.759V192.762C161.772 192.7 161.788 192.639 161.817 192.582C161.847 192.526 161.89 192.476 161.943 192.436C162.049 192.359 162.179 192.314 162.315 192.309C162.451 192.303 162.585 192.338 162.697 192.406C162.817 192.48 162.91 192.585 162.964 192.707L164.663 196.099L166.353 192.719C166.403 192.597 166.495 192.493 166.615 192.419C166.727 192.35 166.862 192.316 166.998 192.322C167.133 192.327 167.264 192.372 167.369 192.449C167.422 192.489 167.465 192.539 167.495 192.595C167.525 192.651 167.54 192.713 167.541 192.775V196.759C167.543 196.795 167.534 196.83 167.515 196.862C167.497 196.894 167.469 196.92 167.436 196.939C167.364 196.982 167.279 197.005 167.192 197.004C167.106 197.006 167.02 196.984 166.949 196.939C166.915 196.92 166.888 196.894 166.869 196.862C166.851 196.83 166.842 196.795 166.844 196.759V193.097L165.112 196.622C165.071 196.709 165.005 196.785 164.921 196.841C164.846 196.89 164.756 196.917 164.663 196.918C164.572 196.915 164.483 196.887 164.41 196.836Z" fill="#F5F8F2"/>
<path d="M169.015 196.952C168.977 196.923 168.946 196.886 168.926 196.844C168.907 196.802 168.898 196.757 168.901 196.712V192.561C168.9 192.517 168.91 192.473 168.93 192.433C168.949 192.393 168.979 192.358 169.015 192.329C169.05 192.297 169.092 192.272 169.138 192.255C169.184 192.238 169.233 192.23 169.283 192.23H170.905C171.093 192.229 171.281 192.239 171.468 192.26C171.644 192.28 171.816 192.316 171.983 192.368C172.141 192.415 172.288 192.486 172.418 192.578C172.542 192.673 172.64 192.794 172.704 192.929C172.782 193.09 172.819 193.264 172.814 193.44C172.823 193.699 172.722 193.952 172.532 194.147C172.308 194.36 172.01 194.498 171.688 194.538C171.967 194.586 172.219 194.721 172.4 194.918C172.581 195.115 172.68 195.363 172.68 195.618L172.814 196.673C172.817 196.689 172.817 196.705 172.814 196.72C172.816 196.762 172.807 196.803 172.789 196.841C172.771 196.878 172.743 196.912 172.709 196.939C172.641 196.995 172.553 197.026 172.461 197.025C172.362 197.026 172.266 196.998 172.189 196.943C172.148 196.918 172.114 196.885 172.09 196.847C172.066 196.808 172.053 196.765 172.05 196.72L171.936 195.781C171.919 195.621 171.888 195.462 171.845 195.305C171.816 195.198 171.757 195.099 171.673 195.018C171.596 194.941 171.494 194.887 171.382 194.864C171.225 194.834 171.065 194.822 170.905 194.825H169.655V196.699C169.658 196.744 169.649 196.79 169.629 196.831C169.609 196.873 169.579 196.91 169.54 196.939C169.465 196.995 169.371 197.025 169.273 197.025C169.18 197.029 169.089 197.003 169.015 196.952ZM170.748 194.319C170.895 194.319 171.029 194.319 171.144 194.319C171.263 194.305 171.382 194.282 171.497 194.25C171.604 194.222 171.705 194.176 171.793 194.113C171.875 194.048 171.94 193.968 171.983 193.877C172.037 193.765 172.063 193.643 172.06 193.521C172.061 193.421 172.043 193.321 172.007 193.225C171.979 193.146 171.928 193.075 171.859 193.019C171.799 192.969 171.732 192.926 171.659 192.891C171.576 192.856 171.487 192.833 171.397 192.822L171.125 192.762H169.655V194.31L170.748 194.319Z" fill="#F5F8F2"/>
<path d="M181.909 196.836C181.822 196.782 181.754 196.706 181.713 196.618L179.967 193.097V196.759C179.969 196.795 179.96 196.83 179.941 196.862C179.923 196.894 179.896 196.92 179.862 196.939C179.79 196.984 179.705 197.006 179.619 197.004C179.532 197.005 179.447 196.982 179.375 196.939C179.341 196.92 179.314 196.894 179.296 196.862C179.277 196.83 179.268 196.795 179.27 196.759V192.762C179.271 192.7 179.286 192.639 179.316 192.582C179.346 192.526 179.389 192.476 179.442 192.436C179.552 192.352 179.693 192.306 179.838 192.308C179.966 192.307 180.09 192.342 180.196 192.406C180.316 192.48 180.409 192.585 180.463 192.706L182.162 196.099L183.861 192.706C183.913 192.585 184.005 192.481 184.123 192.406C184.233 192.35 184.36 192.324 184.486 192.333C184.632 192.331 184.775 192.377 184.887 192.462C184.94 192.502 184.983 192.552 185.013 192.608C185.042 192.664 185.058 192.726 185.059 192.788V196.772C185.059 196.807 185.05 196.843 185.031 196.874C185.013 196.905 184.986 196.932 184.954 196.952C184.881 196.995 184.797 197.018 184.71 197.016C184.622 197.018 184.536 196.996 184.462 196.952C184.43 196.932 184.404 196.905 184.386 196.874C184.369 196.842 184.36 196.807 184.362 196.772V193.11L182.611 196.622C182.57 196.71 182.502 196.786 182.415 196.841C182.342 196.891 182.253 196.918 182.162 196.918C182.07 196.918 181.982 196.891 181.909 196.841V196.836Z" fill="#F5F8F2"/>
<path d="M185.965 195.43C185.939 195.41 185.918 195.385 185.903 195.357C185.889 195.328 185.883 195.298 185.884 195.267C185.883 195.235 185.889 195.202 185.903 195.173C185.917 195.143 185.938 195.117 185.965 195.095C186.026 195.048 186.104 195.023 186.185 195.027H187.85C187.889 195.024 187.928 195.029 187.965 195.041C188.002 195.053 188.036 195.071 188.065 195.095C188.093 195.116 188.115 195.142 188.13 195.172C188.145 195.202 188.152 195.234 188.151 195.267C188.152 195.298 188.145 195.329 188.13 195.358C188.115 195.386 188.093 195.411 188.065 195.43C188.004 195.474 187.928 195.496 187.85 195.494H186.185C186.105 195.497 186.027 195.474 185.965 195.43Z" fill="#F5F8F2"/>
<path d="M199.403 196.836C199.317 196.78 199.249 196.705 199.207 196.617L197.465 193.097V196.759C197.467 196.795 197.459 196.83 197.44 196.862C197.422 196.893 197.394 196.92 197.36 196.939C197.289 196.979 197.206 197.001 197.122 197.001C197.037 197.001 196.955 196.979 196.883 196.939C196.85 196.92 196.822 196.893 196.804 196.862C196.785 196.83 196.776 196.795 196.778 196.759V192.762C196.779 192.7 196.795 192.638 196.824 192.582C196.854 192.526 196.897 192.476 196.95 192.436C197.06 192.351 197.201 192.305 197.346 192.307C197.472 192.306 197.596 192.341 197.699 192.406C197.821 192.479 197.914 192.584 197.967 192.706L199.67 196.099L201.369 192.706C201.421 192.585 201.513 192.481 201.631 192.406C201.744 192.337 201.878 192.303 202.014 192.308C202.15 192.314 202.28 192.359 202.385 192.436C202.439 192.476 202.482 192.526 202.511 192.582C202.541 192.638 202.557 192.7 202.557 192.762V196.746C202.559 196.782 202.55 196.817 202.532 196.849C202.513 196.881 202.486 196.907 202.452 196.926C202.382 196.97 202.299 196.992 202.214 196.991C202.125 196.993 202.039 196.97 201.965 196.926C201.933 196.906 201.906 196.879 201.888 196.848C201.869 196.817 201.86 196.782 201.86 196.746V193.084L200.109 196.622C200.067 196.709 199.999 196.785 199.913 196.84C199.84 196.889 199.752 196.916 199.661 196.918C199.567 196.915 199.477 196.887 199.403 196.836Z" fill="#F5F8F2"/>
<path d="M205.53 196.952C205.504 196.928 205.484 196.9 205.471 196.869C205.458 196.838 205.452 196.805 205.454 196.772V195.606H204.103C204.026 195.607 203.951 195.582 203.893 195.537C203.866 195.516 203.844 195.489 203.829 195.46C203.814 195.43 203.807 195.398 203.807 195.365C203.806 195.332 203.813 195.299 203.828 195.269C203.843 195.238 203.865 195.211 203.893 195.19C203.952 195.146 204.027 195.123 204.103 195.125H205.454V193.95C205.451 193.882 205.478 193.816 205.53 193.766C205.556 193.741 205.587 193.722 205.621 193.71C205.656 193.697 205.693 193.691 205.73 193.693C205.767 193.692 205.803 193.697 205.837 193.71C205.871 193.723 205.901 193.742 205.926 193.766C205.979 193.815 206.008 193.882 206.007 193.95V195.125H207.358C207.434 195.124 207.508 195.147 207.568 195.19C207.596 195.211 207.618 195.238 207.633 195.269C207.648 195.299 207.655 195.332 207.654 195.365C207.654 195.398 207.647 195.43 207.632 195.46C207.617 195.489 207.595 195.516 207.568 195.537C207.51 195.583 207.435 195.608 207.358 195.606H206.007V196.772C206.007 196.839 205.978 196.904 205.926 196.952C205.901 196.975 205.87 196.994 205.837 197.006C205.803 197.019 205.767 197.025 205.73 197.025C205.693 197.028 205.656 197.022 205.621 197.01C205.586 196.997 205.555 196.977 205.53 196.952Z" fill="#F5F8F2"/>
<path d="M199.04 181.183L201.188 183.756L203.574 179.897H205.96" stroke="#F5F8F2" stroke-miterlimit="10"/>
<path d="M162.904 139.434L160.613 148H159.611L157.912 142.234C157.861 142.07 157.812 141.906 157.766 141.742C157.723 141.574 157.682 141.416 157.643 141.268C157.604 141.115 157.57 140.982 157.543 140.869C157.52 140.752 157.502 140.664 157.49 140.605C157.482 140.664 157.467 140.75 157.443 140.863C157.424 140.977 157.396 141.107 157.361 141.256C157.33 141.404 157.291 141.562 157.244 141.73C157.201 141.898 157.154 142.068 157.104 142.24L155.451 148H154.449L152.176 139.434H153.213L154.59 144.807C154.637 144.986 154.68 145.164 154.719 145.34C154.762 145.512 154.799 145.68 154.83 145.844C154.865 146.008 154.896 146.168 154.924 146.324C154.951 146.48 154.977 146.633 155 146.781C155.02 146.629 155.045 146.471 155.076 146.307C155.107 146.139 155.141 145.969 155.176 145.797C155.215 145.625 155.256 145.451 155.299 145.275C155.346 145.1 155.395 144.924 155.445 144.748L156.986 139.434H158.012L159.617 144.789C159.672 144.973 159.723 145.154 159.77 145.334C159.816 145.514 159.857 145.689 159.893 145.861C159.932 146.029 159.965 146.191 159.992 146.348C160.023 146.5 160.051 146.645 160.074 146.781C160.102 146.59 160.135 146.389 160.174 146.178C160.213 145.967 160.258 145.746 160.309 145.516C160.363 145.285 160.422 145.047 160.484 144.801L161.861 139.434H162.904ZM169.648 144.777C169.648 145.305 169.58 145.775 169.443 146.189C169.307 146.604 169.109 146.953 168.852 147.238C168.594 147.523 168.281 147.742 167.914 147.895C167.551 148.043 167.139 148.117 166.678 148.117C166.248 148.117 165.854 148.043 165.494 147.895C165.139 147.742 164.83 147.523 164.568 147.238C164.311 146.953 164.109 146.604 163.965 146.189C163.824 145.775 163.754 145.305 163.754 144.777C163.754 144.074 163.873 143.477 164.111 142.984C164.35 142.488 164.689 142.111 165.131 141.854C165.576 141.592 166.105 141.461 166.719 141.461C167.305 141.461 167.816 141.592 168.254 141.854C168.695 142.115 169.037 142.494 169.279 142.99C169.525 143.482 169.648 144.078 169.648 144.777ZM164.762 144.777C164.762 145.293 164.83 145.74 164.967 146.119C165.104 146.498 165.314 146.791 165.6 146.998C165.885 147.205 166.252 147.309 166.701 147.309C167.146 147.309 167.512 147.205 167.797 146.998C168.086 146.791 168.299 146.498 168.436 146.119C168.572 145.74 168.641 145.293 168.641 144.777C168.641 144.266 168.572 143.824 168.436 143.453C168.299 143.078 168.088 142.789 167.803 142.586C167.518 142.383 167.148 142.281 166.695 142.281C166.027 142.281 165.537 142.502 165.225 142.943C164.916 143.385 164.762 143.996 164.762 144.777ZM176.867 144.777C176.867 145.305 176.799 145.775 176.662 146.189C176.525 146.604 176.328 146.953 176.07 147.238C175.812 147.523 175.5 147.742 175.133 147.895C174.77 148.043 174.357 148.117 173.896 148.117C173.467 148.117 173.072 148.043 172.713 147.895C172.357 147.742 172.049 147.523 171.787 147.238C171.529 146.953 171.328 146.604 171.184 146.189C171.043 145.775 170.973 145.305 170.973 144.777C170.973 144.074 171.092 143.477 171.33 142.984C171.568 142.488 171.908 142.111 172.35 141.854C172.795 141.592 173.324 141.461 173.938 141.461C174.523 141.461 175.035 141.592 175.473 141.854C175.914 142.115 176.256 142.494 176.498 142.99C176.744 143.482 176.867 144.078 176.867 144.777ZM171.98 144.777C171.98 145.293 172.049 145.74 172.186 146.119C172.322 146.498 172.533 146.791 172.818 146.998C173.104 147.205 173.471 147.309 173.92 147.309C174.365 147.309 174.73 147.205 175.016 146.998C175.305 146.791 175.518 146.498 175.654 146.119C175.791 145.74 175.859 145.293 175.859 144.777C175.859 144.266 175.791 143.824 175.654 143.453C175.518 143.078 175.307 142.789 175.021 142.586C174.736 142.383 174.367 142.281 173.914 142.281C173.246 142.281 172.756 142.502 172.443 142.943C172.135 143.385 171.98 143.996 171.98 144.777ZM180.834 148.117C180.021 148.117 179.377 147.84 178.9 147.285C178.428 146.73 178.191 145.906 178.191 144.812C178.191 143.707 178.434 142.873 178.918 142.311C179.402 141.744 180.047 141.461 180.852 141.461C181.191 141.461 181.488 141.506 181.742 141.596C181.996 141.686 182.215 141.807 182.398 141.959C182.582 142.107 182.736 142.277 182.861 142.469H182.932C182.916 142.348 182.9 142.182 182.885 141.971C182.869 141.76 182.861 141.588 182.861 141.455V138.883H183.834V148H183.049L182.902 147.086H182.861C182.74 147.277 182.586 147.451 182.398 147.607C182.215 147.764 181.994 147.889 181.736 147.982C181.482 148.072 181.182 148.117 180.834 148.117ZM180.986 147.309C181.674 147.309 182.16 147.113 182.445 146.723C182.73 146.332 182.873 145.752 182.873 144.982V144.807C182.873 143.99 182.736 143.363 182.463 142.926C182.193 142.488 181.701 142.27 180.986 142.27C180.389 142.27 179.941 142.5 179.645 142.961C179.348 143.418 179.199 144.043 179.199 144.836C179.199 145.625 179.346 146.234 179.639 146.664C179.936 147.094 180.385 147.309 180.986 147.309ZM191.123 147.988L189.98 144.25C189.93 144.09 189.881 143.934 189.834 143.781C189.791 143.625 189.75 143.477 189.711 143.336C189.676 143.191 189.643 143.059 189.611 142.938C189.584 142.812 189.561 142.705 189.541 142.615H189.5C189.484 142.705 189.463 142.812 189.436 142.938C189.408 143.059 189.375 143.191 189.336 143.336C189.301 143.48 189.262 143.633 189.219 143.793C189.176 143.949 189.127 144.107 189.072 144.268L187.877 147.988H186.781L185.012 141.566H186.02L186.945 145.111C187.008 145.346 187.066 145.578 187.121 145.809C187.18 146.035 187.229 146.25 187.268 146.453C187.311 146.652 187.342 146.826 187.361 146.975H187.408C187.432 146.877 187.457 146.76 187.484 146.623C187.516 146.486 187.549 146.342 187.584 146.189C187.623 146.033 187.664 145.879 187.707 145.727C187.75 145.57 187.793 145.424 187.836 145.287L189.02 141.566H190.068L191.211 145.281C191.27 145.469 191.326 145.664 191.381 145.867C191.439 146.07 191.492 146.268 191.539 146.459C191.586 146.646 191.619 146.814 191.639 146.963H191.686C191.701 146.83 191.73 146.666 191.773 146.471C191.816 146.275 191.865 146.061 191.92 145.826C191.979 145.592 192.039 145.354 192.102 145.111L193.039 141.566H194.029L192.254 147.988H191.123ZM200.738 144.777C200.738 145.305 200.67 145.775 200.533 146.189C200.396 146.604 200.199 146.953 199.941 147.238C199.684 147.523 199.371 147.742 199.004 147.895C198.641 148.043 198.229 148.117 197.768 148.117C197.338 148.117 196.943 148.043 196.584 147.895C196.229 147.742 195.92 147.523 195.658 147.238C195.4 146.953 195.199 146.604 195.055 146.189C194.914 145.775 194.844 145.305 194.844 144.777C194.844 144.074 194.963 143.477 195.201 142.984C195.439 142.488 195.779 142.111 196.221 141.854C196.666 141.592 197.195 141.461 197.809 141.461C198.395 141.461 198.906 141.592 199.344 141.854C199.785 142.115 200.127 142.494 200.369 142.99C200.615 143.482 200.738 144.078 200.738 144.777ZM195.852 144.777C195.852 145.293 195.92 145.74 196.057 146.119C196.193 146.498 196.404 146.791 196.689 146.998C196.975 147.205 197.342 147.309 197.791 147.309C198.236 147.309 198.602 147.205 198.887 146.998C199.176 146.791 199.389 146.498 199.525 146.119C199.662 145.74 199.73 145.293 199.73 144.777C199.73 144.266 199.662 143.824 199.525 143.453C199.389 143.078 199.178 142.789 198.893 142.586C198.607 142.383 198.238 142.281 197.785 142.281C197.117 142.281 196.627 142.502 196.314 142.943C196.006 143.385 195.852 143.996 195.852 144.777ZM205.338 141.461C205.467 141.461 205.602 141.469 205.742 141.484C205.883 141.496 206.008 141.514 206.117 141.537L205.994 142.439C205.889 142.412 205.771 142.391 205.643 142.375C205.514 142.359 205.393 142.352 205.279 142.352C205.021 142.352 204.777 142.404 204.547 142.51C204.32 142.611 204.121 142.76 203.949 142.955C203.777 143.146 203.643 143.379 203.545 143.652C203.447 143.922 203.398 144.223 203.398 144.555V148H202.42V141.578H203.229L203.334 142.762H203.375C203.508 142.523 203.668 142.307 203.855 142.111C204.043 141.912 204.26 141.754 204.506 141.637C204.756 141.52 205.033 141.461 205.338 141.461ZM208.297 138.883V143.617C208.297 143.773 208.291 143.965 208.279 144.191C208.268 144.414 208.258 144.611 208.25 144.783H208.291C208.373 144.682 208.492 144.531 208.648 144.332C208.809 144.133 208.943 143.973 209.053 143.852L211.186 141.578H212.328L209.744 144.32L212.516 148H211.344L209.076 144.959L208.297 145.674V148H207.33V138.883H208.297Z" fill="white"/>
<path d="M254.02 177H265V203.085C265 203.085 261.506 272.904 257.514 240.35C253.521 207.795 254.02 203.085 254.02 203.085V177Z" fill="#EDD0BB"/>
<path d="M283 171.756C283 180.242 268.488 182 260.031 182C251.574 182 234 180.242 234 171.756C234 163.27 251.574 161 260.031 161C268.488 161 283 163.27 283 171.756Z" fill="#EDD0BB"/>
<circle cx="244.5" cy="167.5" r="2.5" fill="#A16438"/>
<circle cx="253.5" cy="167.5" r="2.5" fill="#A16438"/>
<circle cx="272.5" cy="175.5" r="2.5" fill="#A16438"/>
<circle cx="263.5" cy="176.5" r="2.5" fill="#A16438"/>
<circle cx="254.5" cy="176.5" r="2.5" fill="#A16438"/>
<circle cx="244.5" cy="175.5" r="2.5" fill="#A16438"/>
<circle cx="271.5" cy="167.5" r="2.5" fill="#A16438"/>
<circle cx="262.5" cy="167.5" r="2.5" fill="#A16438"/>
<path opacity="0.3" d="M74 52.0959C74 22.1376 133 23.136 133 52.0959C133 81.0557 133 121 133 121H74C74 121 74 82.0541 74 52.0959Z" fill="#A16438"/>
<circle cx="103.27" cy="52.5" r="7.5" fill="#B7835E"/>
<circle cx="103.27" cy="75.5" r="7.5" fill="#B7835E"/>
<circle cx="103.27" cy="98.5" r="7.5" fill="#B7835E"/>
<path d="M132.5 121.5V130.5H74.5V121.5H132.5Z" stroke="#B7835E"/>
<path d="M132 132V142.633L115.412 154.688L114.38 155.438L115.354 156.261L131.443 169.852L115.36 183.237L114.383 184.051L115.404 184.81L131.384 196.67L115.358 210.059L114.335 210.914L115.443 211.656L131.237 222.252L115.422 233.451L114.228 234.297L115.45 235.103L130.79 245.201L75 265.57L75 132H132Z" stroke="#A16438" stroke-width="2"/>
<path d="M95.02 177H106V203.085C106 203.085 102.506 272.904 98.5136 240.35C94.5209 207.795 95.02 203.085 95.02 203.085V177Z" fill="#EDD0BB"/>
<path d="M124 171.756C124 180.242 109.488 182 101.031 182C92.5744 182 75 180.242 75 171.756C75 163.27 92.5744 161 101.031 161C109.488 161 124 163.27 124 171.756Z" fill="#EDD0BB"/>
<circle cx="85.5" cy="167.5" r="2.5" fill="#A16438"/>
<circle cx="94.5" cy="167.5" r="2.5" fill="#A16438"/>
<circle cx="113.5" cy="175.5" r="2.5" fill="#A16438"/>
<circle cx="104.5" cy="176.5" r="2.5" fill="#A16438"/>
<circle cx="95.5" cy="176.5" r="2.5" fill="#A16438"/>
<circle cx="85.5" cy="175.5" r="2.5" fill="#A16438"/>
<circle cx="112.5" cy="167.5" r="2.5" fill="#A16438"/>
<circle cx="103.5" cy="167.5" r="2.5" fill="#A16438"/>
<path d="M181 301C269.918 301 342 292.334 342 281.644C342 270.953 269.918 262.287 181 262.287C92.0822 262.287 20 270.953 20 281.644C20 292.334 92.0822 301 181 301Z" fill="#CCA183"/>
<defs>
<linearGradient id="paint0_linear_737_7997" x1="179" y1="0" x2="179" y2="387" gradientUnits="userSpaceOnUse">
<stop offset="0.451923" stop-color="#F5F8F2"/>
<stop offset="0.754808" stop-color="#EDD0BB"/>
</linearGradient>
</defs>
</svg>
